<svg width="300" height="40" viewBox="0 0 300 40" fill="none" xmlns="http://www.w3.org/2000/svg">
<path d="M297 0H3C1.34315 0 0 1.34315 0 3V37C0 38.6569 1.34315 40 3 40H297C298.657 40 300 38.6569 300 37V3C300 1.34315 298.657 0 297 0Z" fill="white" fill-opacity="0.9"/>
<path d="M3 0.75H297C298.243 0.75 299.25 1.75736 299.25 3V37C299.25 38.2426 298.243 39.25 297 39.25H3C1.75736 39.25 0.75 38.2426 0.75 37V3C0.75 1.75736 1.75736 0.75 3 0.75Z" stroke="#03C75A" stroke-opacity="0.9" stroke-width="1.5"/>
<path d="M124.209 14.523V21.413H125.275V14.523H124.209ZM124.209 21.101V22.037H124.963C126.38 22.037 127.693 21.972 129.227 21.66L129.084 20.737C127.602 21.036 126.328 21.101 124.963 21.101H124.209ZM132.594 13.262V25.014H133.634V13.262H132.594ZM127.472 17.201V18.098H130.41V17.201H127.472ZM130.111 13.535V24.416H131.125V13.535H130.111ZM144.137 13.249V25.027H145.216V13.249H144.137ZM139.015 14.159C137.286 14.159 136.038 15.758 136.038 18.254C136.038 20.763 137.286 22.362 139.015 22.362C140.757 22.362 142.005 20.763 142.005 18.254C142.005 15.758 140.757 14.159 139.015 14.159ZM139.015 15.134C140.172 15.134 140.965 16.356 140.965 18.254C140.965 20.165 140.172 21.413 139.015 21.413C137.871 21.413 137.065 20.165 137.065 18.254C137.065 16.356 137.871 15.134 139.015 15.134ZM156.174 13.249V25.027H157.24V13.249H156.174ZM153.067 17.617V18.501H156.486V17.617H153.067ZM148.036 14.185V22.076H153.431V14.185H152.365V17.24H149.102V14.185H148.036ZM149.102 18.098H152.365V21.179H149.102V18.098ZM163.183 22.674V23.571H173.83V22.674H163.183ZM167.941 20.152V23.051H169.02V20.152H167.941ZM164.47 14.133V15.004H171.451V16.824H164.509V20.048H165.575V17.695H172.517V14.133H164.47ZM164.509 19.593V20.477H172.79V19.593H164.509ZM176.286 14.51V15.381H183.852V14.51H176.286ZM175.142 22.401V23.298H185.763V22.401H175.142ZM183.28 14.51V15.68C183.28 17.136 183.28 18.891 182.812 21.296L183.891 21.4C184.333 18.865 184.333 17.188 184.333 15.68V14.51H183.28ZM195.642 13.275V21.855H196.734V13.275H195.642ZM189.181 23.87V24.754H197.085V23.87H189.181ZM189.181 20.971V24.169H190.247V20.971H189.181ZM190.429 14.081C188.674 14.081 187.361 15.277 187.361 16.98C187.361 18.67 188.674 19.879 190.429 19.879C192.184 19.879 193.484 18.67 193.484 16.98C193.484 15.277 192.184 14.081 190.429 14.081ZM190.429 15.017C191.573 15.017 192.444 15.823 192.444 16.98C192.444 18.124 191.573 18.93 190.429 18.93C189.285 18.93 188.414 18.124 188.414 16.98C188.414 15.823 189.285 15.017 190.429 15.017Z" fill="#191919"/>
<path d="M109.21 20.42L104.72 14H101V26H104.9V19.58L109.38 26H113.1V14H109.21V20.42Z" fill="#03C75A" fill-opacity="0.9"/>
</svg>
