<svg width="300" height="40" viewBox="0 0 300 40" fill="none" xmlns="http://www.w3.org/2000/svg">
<path d="M3 0.75H297C298.243 0.75 299.25 1.75736 299.25 3V37C299.25 38.2426 298.243 39.25 297 39.25H3C1.75736 39.25 0.75 38.2426 0.75 37V3C0.75 1.75736 1.75736 0.75 3 0.75Z" fill="white" fill-opacity="0.9" stroke="#FEE500" stroke-width="1.5"/>
<path d="M128.642 14.484V14.601C128.642 17.799 127.472 20.425 123.754 22.258L124.339 23.09C128.551 20.997 129.695 17.877 129.695 14.484H128.642ZM124.391 14.484V15.355H129.279V14.484H124.391ZM128.473 17.396L123.806 17.708L123.975 18.67L128.473 18.228V17.396ZM131.593 13.249V25.014H132.685V13.249H131.593ZM132.386 18.02V18.917H134.557V18.02H132.386ZM140.601 14.484V14.601C140.601 17.799 139.431 20.425 135.713 22.258L136.298 23.09C140.51 20.997 141.654 17.877 141.654 14.484H140.601ZM136.35 14.484V15.355H141.238V14.484H136.35ZM140.432 17.396L135.765 17.708L135.934 18.67L140.432 18.228V17.396ZM143.552 13.249V25.014H144.644V13.249H143.552ZM144.345 18.02V18.917H146.516V18.02H144.345ZM152.326 19.905V22.83H153.405V19.905H152.326ZM152.872 14.029C150.389 14.029 148.595 15.238 148.595 17.11C148.595 18.982 150.389 20.191 152.872 20.191C155.355 20.191 157.136 18.982 157.136 17.11C157.136 15.238 155.355 14.029 152.872 14.029ZM152.872 14.887C154.731 14.887 156.096 15.771 156.096 17.11C156.096 18.449 154.731 19.333 152.872 19.333C151 19.333 149.635 18.449 149.635 17.11C149.635 15.771 151 14.887 152.872 14.887ZM147.568 22.622V23.519H158.215V22.622H147.568ZM163.183 22.674V23.571H173.83V22.674H163.183ZM167.941 20.152V23.051H169.02V20.152H167.941ZM164.47 14.133V15.004H171.451V16.824H164.509V20.048H165.575V17.695H172.517V14.133H164.47ZM164.509 19.593V20.477H172.79V19.593H164.509ZM176.286 14.51V15.381H183.852V14.51H176.286ZM175.142 22.401V23.298H185.763V22.401H175.142ZM183.28 14.51V15.68C183.28 17.136 183.28 18.891 182.812 21.296L183.891 21.4C184.333 18.865 184.333 17.188 184.333 15.68V14.51H183.28ZM195.642 13.275V21.855H196.734V13.275H195.642ZM189.181 23.87V24.754H197.085V23.87H189.181ZM189.181 20.971V24.169H190.247V20.971H189.181ZM190.429 14.081C188.674 14.081 187.361 15.277 187.361 16.98C187.361 18.67 188.674 19.879 190.429 19.879C192.184 19.879 193.484 18.67 193.484 16.98C193.484 15.277 192.184 14.081 190.429 14.081ZM190.429 15.017C191.573 15.017 192.444 15.823 192.444 16.98C192.444 18.124 191.573 18.93 190.429 18.93C189.285 18.93 188.414 18.124 188.414 16.98C188.414 15.823 189.285 15.017 190.429 15.017Z" fill="#191919"/>
<path d="M107.5 13C103.358 13 100 15.4885 100 18.56C100 20.5329 101.391 22.2651 103.48 23.2538L102.773 25.7295C102.746 25.8055 102.768 25.8859 102.827 25.9407C102.868 25.9789 102.922 26 102.98 26C103.025 26 103.07 25.9831 103.111 25.9536L106.149 24.0269C106.591 24.0861 107.041 24.1198 107.5 24.1198C111.641 24.1198 115 21.6315 115 18.56C115 15.4885 111.641 13 107.5 13Z" fill="#3C1E1E"/>
</svg>
