<svg width="300" height="40" viewBox="0 0 300 40" fill="none" xmlns="http://www.w3.org/2000/svg">
<path d="M297 0H3C1.34315 0 0 1.34315 0 3V37C0 38.6569 1.34315 40 3 40H297C298.657 40 300 38.6569 300 37V3C300 1.34315 298.657 0 297 0Z" fill="#03C75A"/>
<path d="M124.209 14.523V21.413H125.275V14.523H124.209ZM124.209 21.101V22.037H124.963C126.38 22.037 127.693 21.972 129.227 21.66L129.084 20.737C127.602 21.036 126.328 21.101 124.963 21.101H124.209ZM132.594 13.262V25.014H133.634V13.262H132.594ZM127.472 17.201V18.098H130.41V17.201H127.472ZM130.111 13.535V24.416H131.125V13.535H130.111ZM144.137 13.249V25.027H145.216V13.249H144.137ZM139.015 14.159C137.286 14.159 136.038 15.758 136.038 18.254C136.038 20.763 137.286 22.362 139.015 22.362C140.757 22.362 142.005 20.763 142.005 18.254C142.005 15.758 140.757 14.159 139.015 14.159ZM139.015 15.134C140.172 15.134 140.965 16.356 140.965 18.254C140.965 20.165 140.172 21.413 139.015 21.413C137.871 21.413 137.065 20.165 137.065 18.254C137.065 16.356 137.871 15.134 139.015 15.134ZM156.174 13.249V25.027H157.24V13.249H156.174ZM153.067 17.617V18.501H156.486V17.617H153.067ZM148.036 14.185V22.076H153.431V14.185H152.365V17.24H149.102V14.185H148.036ZM149.102 18.098H152.365V21.179H149.102V18.098ZM159.527 22.674V23.571H170.174V22.674H159.527ZM164.285 20.152V23.051H165.364V20.152H164.285ZM160.814 14.133V15.004H167.795V16.824H160.853V20.048H161.919V17.695H168.861V14.133H160.814ZM160.853 19.593V20.477H169.134V19.593H160.853ZM178.236 14.276V16.382C178.236 18.605 176.819 20.854 175.077 21.686L175.74 22.57C177.664 21.595 179.12 19.086 179.12 16.382V14.276H178.236ZM178.418 14.276V16.382C178.418 18.995 179.887 21.413 181.798 22.349L182.448 21.491C180.706 20.685 179.302 18.527 179.302 16.382V14.276H178.418ZM183.67 13.249V25.027H184.749V13.249H183.67ZM189.987 14.471V15.42C189.987 17.097 188.817 18.605 187.036 19.229L187.608 20.074C189.571 19.372 190.871 17.578 190.871 15.42V14.471H189.987ZM190.182 14.471V15.407C190.182 17.435 191.43 19.164 193.367 19.84L193.926 18.995C192.197 18.41 191.066 16.967 191.066 15.407V14.471H190.182ZM187.374 14.081V14.965H193.653V14.081H187.374ZM195.135 13.262V20.334H196.214V13.262H195.135ZM195.915 16.356V17.253H197.956V16.356H195.915ZM188.583 20.958V21.855H195.135V25.014H196.214V20.958H188.583ZM207.016 13.262V25.014H208.095V13.262H207.016ZM207.835 18.085V18.995H210.019V18.085H207.835ZM198.995 15.134V16.018H205.924V15.134H198.995ZM202.505 16.993C200.854 16.993 199.645 18.111 199.645 19.697C199.645 21.283 200.854 22.401 202.505 22.401C204.169 22.401 205.365 21.283 205.365 19.697C205.365 18.111 204.169 16.993 202.505 16.993ZM202.505 17.89C203.571 17.89 204.338 18.631 204.338 19.697C204.338 20.75 203.571 21.504 202.505 21.504C201.439 21.504 200.672 20.75 200.672 19.697C200.672 18.631 201.439 17.89 202.505 17.89ZM201.946 13.405V15.537H203.025V13.405H201.946ZM219.573 13.262V25.014H220.652V13.262H219.573ZM216.128 14.523V14.705C216.128 17.825 214.555 20.321 211.162 21.959L211.734 22.83C215.66 20.906 217.194 17.929 217.194 14.523H216.128ZM211.695 14.523V15.407H216.596V14.523H211.695Z" fill="white"/>
<path d="M109.21 20.42L104.72 14H101V26H104.9V19.58L109.38 26H113.1V14H109.21V20.42Z" fill="white"/>
</svg>
