<svg width="300" height="40" viewBox="0 0 300 40" fill="none" xmlns="http://www.w3.org/2000/svg">
<path d="M297 0H3C1.34315 0 0 1.34315 0 3V37C0 38.6569 1.34315 40 3 40H297C298.657 40 300 38.6569 300 37V3C300 1.34315 298.657 0 297 0Z" fill="#FEE500"/>
<path d="M128.642 14.484V14.601C128.642 17.799 127.472 20.425 123.754 22.258L124.339 23.09C128.551 20.997 129.695 17.877 129.695 14.484H128.642ZM124.391 14.484V15.355H129.279V14.484H124.391ZM128.473 17.396L123.806 17.708L123.975 18.67L128.473 18.228V17.396ZM131.593 13.249V25.014H132.685V13.249H131.593ZM132.386 18.02V18.917H134.557V18.02H132.386ZM140.601 14.484V14.601C140.601 17.799 139.431 20.425 135.713 22.258L136.298 23.09C140.51 20.997 141.654 17.877 141.654 14.484H140.601ZM136.35 14.484V15.355H141.238V14.484H136.35ZM140.432 17.396L135.765 17.708L135.934 18.67L140.432 18.228V17.396ZM143.552 13.249V25.014H144.644V13.249H143.552ZM144.345 18.02V18.917H146.516V18.02H144.345ZM152.326 19.905V22.83H153.405V19.905H152.326ZM152.872 14.029C150.389 14.029 148.595 15.238 148.595 17.11C148.595 18.982 150.389 20.191 152.872 20.191C155.355 20.191 157.136 18.982 157.136 17.11C157.136 15.238 155.355 14.029 152.872 14.029ZM152.872 14.887C154.731 14.887 156.096 15.771 156.096 17.11C156.096 18.449 154.731 19.333 152.872 19.333C151 19.333 149.635 18.449 149.635 17.11C149.635 15.771 151 14.887 152.872 14.887ZM147.568 22.622V23.519H158.215V22.622H147.568ZM159.527 22.674V23.571H170.174V22.674H159.527ZM164.285 20.152V23.051H165.364V20.152H164.285ZM160.814 14.133V15.004H167.795V16.824H160.853V20.048H161.919V17.695H168.861V14.133H160.814ZM160.853 19.593V20.477H169.134V19.593H160.853ZM178.236 14.276V16.382C178.236 18.605 176.819 20.854 175.077 21.686L175.74 22.57C177.664 21.595 179.12 19.086 179.12 16.382V14.276H178.236ZM178.418 14.276V16.382C178.418 18.995 179.887 21.413 181.798 22.349L182.448 21.491C180.706 20.685 179.302 18.527 179.302 16.382V14.276H178.418ZM183.67 13.249V25.027H184.749V13.249H183.67ZM189.987 14.471V15.42C189.987 17.097 188.817 18.605 187.036 19.229L187.608 20.074C189.571 19.372 190.871 17.578 190.871 15.42V14.471H189.987ZM190.182 14.471V15.407C190.182 17.435 191.43 19.164 193.367 19.84L193.926 18.995C192.197 18.41 191.066 16.967 191.066 15.407V14.471H190.182ZM187.374 14.081V14.965H193.653V14.081H187.374ZM195.135 13.262V20.334H196.214V13.262H195.135ZM195.915 16.356V17.253H197.956V16.356H195.915ZM188.583 20.958V21.855H195.135V25.014H196.214V20.958H188.583ZM207.016 13.262V25.014H208.095V13.262H207.016ZM207.835 18.085V18.995H210.019V18.085H207.835ZM198.995 15.134V16.018H205.924V15.134H198.995ZM202.505 16.993C200.854 16.993 199.645 18.111 199.645 19.697C199.645 21.283 200.854 22.401 202.505 22.401C204.169 22.401 205.365 21.283 205.365 19.697C205.365 18.111 204.169 16.993 202.505 16.993ZM202.505 17.89C203.571 17.89 204.338 18.631 204.338 19.697C204.338 20.75 203.571 21.504 202.505 21.504C201.439 21.504 200.672 20.75 200.672 19.697C200.672 18.631 201.439 17.89 202.505 17.89ZM201.946 13.405V15.537H203.025V13.405H201.946ZM219.573 13.262V25.014H220.652V13.262H219.573ZM216.128 14.523V14.705C216.128 17.825 214.555 20.321 211.162 21.959L211.734 22.83C215.66 20.906 217.194 17.929 217.194 14.523H216.128ZM211.695 14.523V15.407H216.596V14.523H211.695Z" fill="#191919"/>
<path d="M107.5 13C103.358 13 100 15.4885 100 18.56C100 20.5329 101.391 22.2651 103.48 23.2538L102.773 25.7295C102.746 25.8055 102.768 25.8859 102.827 25.9407C102.868 25.9789 102.922 26 102.98 26C103.025 26 103.07 25.9831 103.111 25.9536L106.149 24.0269C106.591 24.0861 107.041 24.1198 107.5 24.1198C111.641 24.1198 115 21.6315 115 18.56C115 15.4885 111.641 13 107.5 13Z" fill="#3C1E1E"/>
</svg>
